<svg width="3840" height="2160" xmlns="http://www.w3.org/2000/svg">
  <defs>
    <linearGradient id="a" gradientTransform="rotate(90)">
      <stop offset="5%" stop-color="#e755dd" />
      <stop offset="95%" stop-color="#ed7fe5" />
    </linearGradient>
    <linearGradient id="b" gradientTransform="rotate(90)">
      <stop offset="5%" stop-color="#d465e1" />
      <stop offset="95%" stop-color="#de8be8" />
    </linearGradient>
    <linearGradient id="c" gradientTransform="rotate(90)">
      <stop offset="5%" stop-color="#c175e5" />
      <stop offset="95%" stop-color="#d097eb" />
    </linearGradient>
    <linearGradient id="d" gradientTransform="rotate(90)">
      <stop offset="5%" stop-color="#ae86e8" />
      <stop offset="95%" stop-color="#c2a4ed" />
    </linearGradient>
    <linearGradient id="e" gradientTransform="rotate(90)">
      <stop offset="5%" stop-color="#9b96ec" />
      <stop offset="95%" stop-color="#b4b0f0" />
    </linearGradient>
    <linearGradient id="f" gradientTransform="rotate(90)">
      <stop offset="5%" stop-color="#88a6f0" />
      <stop offset="95%" stop-color="#a5bcf3" />
    </linearGradient>
    <linearGradient id="g" gradientTransform="rotate(90)">
      <stop offset="5%" stop-color="#88b4f1" />
      <stop offset="95%" stop-color="#a5c6f4" />
    </linearGradient>
    <linearGradient id="h" gradientTransform="rotate(90)">
      <stop offset="5%" stop-color="#9bc0f0" />
      <stop offset="95%" stop-color="#b4cff3" />
    </linearGradient>
    <linearGradient id="i" gradientTransform="rotate(90)">
      <stop offset="5%" stop-color="#aeccef" />
      <stop offset="95%" stop-color="#c2d8f3" />
    </linearGradient>
    <linearGradient id="j" gradientTransform="rotate(90)">
      <stop offset="5%" stop-color="#c1d9ee" />
      <stop offset="95%" stop-color="#d0e2f2" />
    </linearGradient>
    <linearGradient id="k" gradientTransform="rotate(90)">
      <stop offset="5%" stop-color="#d5e5ec" />
      <stop offset="95%" stop-color="#dfebf0" />
    </linearGradient>
    <linearGradient id="l" gradientTransform="rotate(90)">
      <stop offset="5%" stop-color="#e8f1eb" />
      <stop offset="95%" stop-color="#edf4f0" />
    </linearGradient>
    <linearGradient id="m" gradientTransform="rotate(90)">
      <stop offset="5%" stop-color="#fbfdea" />
      <stop offset="95%" stop-color="#fcfdef" />
    </linearGradient>
  </defs>
  <path fill="#fa45d9" d="M0 0h3840v2160H0z" />
  <path
    d="M0 154c206.918-2.444 413.836-4.887 611-1 197.164 3.887 384.574 14.105 620 20s518.867 7.467 746 0c227.133-7.467 397.959-23.972 590-31 192.041-7.028 405.297-4.58 621-1 215.703 3.58 433.851 8.29 692 13l-40 2006H0Z"
    fill="url(#a)" />
  <path
    d="M0 308c235.11 16.213 470.22 32.426 675 28 204.78-4.426 379.228-29.49 581-35 201.772-5.51 430.867 8.533 656 8 225.133-.533 446.305-15.644 648-17 201.695-1.356 383.913 11.041 594 16s448.044 2.48 726 0l-40 1852H0Z"
    fill="url(#b)" />
  <path
    d="M0 462c216.818-12.595 433.636-25.19 646-21 212.364 4.19 420.274 25.164 632 26 211.726.836 427.267-18.467 632-29 204.733-10.533 398.659-12.297 613-3s449.097 29.656 672 36c222.903 6.344 433.951-1.328 685-9l-40 1698H0Z"
    fill="url(#c)" />
  <path
    d="M0 617c197.841-10.849 395.682-21.697 613-17 217.318 4.697 454.113 24.941 678 28 223.887 3.059 434.867-11.067 633-23 198.133-11.933 383.42-21.674 593-19 209.58 2.674 443.451 17.764 668 25 224.549 7.236 439.774 6.618 695 6l-40 1543H0Z"
    fill="url(#d)" />
  <path
    d="M0 771c227.108 10.564 454.215 21.128 652 19 197.785-2.128 366.246-16.949 582-19 215.754-2.051 478.8 8.667 699 6s397.554-18.718 607-23c209.446-4.282 450.985 3.205 673 8s424.508 6.897 667 9l-40 1389H0Z"
    fill="url(#e)" />
  <path
    d="M0 925c230.336 7.087 460.672 14.174 673 8 212.328-6.174 406.649-25.61 604-20 197.351 5.61 397.733 36.267 628 39 230.267 2.733 490.418-22.456 702-35s374.595-12.441 572-9c197.405 3.441 429.203 10.22 701 17l-40 1235H0Z"
    fill="url(#f)" />
  <path
    d="M0 1079c235.674-14.659 471.349-29.318 695-25 223.651 4.318 435.28 27.613 628 40 192.72 12.387 366.533 13.867 570 11 203.467-2.867 436.587-10.08 651-9s410.118 10.451 623 9c212.882-1.451 442.941-13.726 713-26l-40 1081H0Z"
    fill="url(#g)" />
  <path
    d="M0 1234c208.526-7.962 417.051-15.923 623-18s409.32 1.73 629 0 455.667-9 662-12c206.333-3 383.013-1.73 607 0 223.987 1.73 495.282 3.923 723 9 227.718 5.077 411.859 13.038 636 21l-40 926H0Z"
    fill="url(#h)" />
  <path
    d="M0 1388c229.146-8.28 458.292-16.559 655-19 196.708-2.441 360.977.956 573 13 212.023 12.044 471.8 32.733 707 36 235.2 3.267 445.823-10.89 657-14 211.177-3.11 422.908 4.826 631 4 208.092-.826 412.546-10.413 657-20l-40 772H0Z"
    fill="url(#i)" />
  <path
    d="M0 1542c209.687 16.29 419.374 32.58 625 30 205.626-2.58 407.19-24.028 638-28 230.81-3.972 490.867 9.533 697 9 206.133-.533 358.344-15.105 557-20s443.759-.113 672 3c228.241 3.113 439.62 4.556 691 6l-40 618H0Z"
    fill="url(#j)" />
  <path
    d="M0 1697c205.185-4.444 410.37-8.887 609-16 198.63-7.113 390.708-16.895 626-12 235.292 4.895 513.8 24.467 727 24 213.2-.467 361.092-20.972 572-18 210.908 2.972 484.83 29.42 713 37 228.17 7.58 410.585-3.71 633-15l-40 463H0Z"
    fill="url(#k)" />
  <path
    d="M0 1851c205.664 12.541 411.328 25.082 610 20 198.672-5.082 390.351-27.787 610-31 219.649-3.213 467.267 13.067 687 23s411.582 13.52 612 6 409.405-26.149 631-31c221.595-4.851 455.797 4.074 730 13l-40 309H0Z"
    fill="url(#l)" />
  <path
    d="M0 2005c194 2.972 388 5.944 617 2s493-14.803 714-20c221-5.197 399-4.733 581 5s368 28.736 590 31c222 2.264 480-12.21 709-18 229-5.79 429-2.895 669 0l-40 155H0Z"
    fill="url(#m)" />
  <path
    d="M0 2159c218.413-6.282 436.826-12.564 663-17 226.174-4.436 460.11-7.026 671-10s398.733-6.333 598-2 409.956 16.359 610 29c200.044 12.641 389.441 25.897 604 26 214.559.103 454.28-12.949 734-26l-40 1H0Z"
    fill="url(#gradient_14)" />
</svg>